<!DOCTYPE svg PUBLIC "-//W3C//DTD SVG 1.1//EN" "http://www.w3.org/Graphics/SVG/1.1/DTD/svg11.dtd">
<!-- Uploaded to: SVG Repo, www.svgrepo.com, Transformed by: SVG Repo Mixer Tools -->
<svg width="256px" height="256px" viewBox="-10.56 -10.56 53.12 53.12" xmlns="http://www.w3.org/2000/svg" fill="#000000" transform="matrix(-1, 0, 0, 1, 0, 0)">
<g id="SVGRepo_bgCarrier" stroke-width="0">
<rect x="-10.56" y="-10.56" width="53.12" height="53.12" rx="26.56" fill="#ffda75" strokewidth="0"/>
</g>
<g id="SVGRepo_tracerCarrier" stroke-linecap="round" stroke-linejoin="round"/>
<g id="SVGRepo_iconCarrier"> <defs> <style>.cls-1{fill:#000000;}.cls-2{fill:#9ca1ab;}</style> </defs> <g data-name="26. Clipboard" id="_26._Clipboard"> <path class="cls-1" d="M25,32H7a3,3,0,0,1-3-3V7A3,3,0,0,1,7,4H8A1,1,0,0,1,8,6H7A1,1,0,0,0,6,7V29a1,1,0,0,0,1,1H25a1,1,0,0,0,1-1V16a1,1,0,0,1,2,0V29A3,3,0,0,1,25,32Z"/> <path class="cls-1" d="M27,13a1,1,0,0,1-1-1V7a1,1,0,0,0-1-1H20a1,1,0,0,1,0-2h5a3,3,0,0,1,3,3v5A1,1,0,0,1,27,13Z"/> <path class="cls-1" d="M19,8H13a2,2,0,0,1-2-2V4a2,2,0,0,1,2-2h6a2,2,0,0,1,2,2V6A2,2,0,0,1,19,8ZM13,4V6h6V4Z"/> <path class="cls-1" d="M16,4a1,1,0,0,1-1-1V1a1,1,0,0,1,2,0V3A1,1,0,0,1,16,4Z"/> <path class="cls-1" d="M13,17H9a1,1,0,0,1-1-1V12a1,1,0,0,1,1-1h4a1,1,0,0,1,1,1v4A1,1,0,0,1,13,17Zm-3-2h2V13H10Z"/> <path class="cls-1" d="M13,26H9a1,1,0,0,1-1-1V21a1,1,0,0,1,1-1h4a1,1,0,0,1,1,1v4A1,1,0,0,1,13,26Zm-3-2h2V22H10Z"/> <path class="cls-2" d="M23,15H17a1,1,0,0,1,0-2h6a1,1,0,0,1,0,2Z"/> <path class="cls-2" d="M23,24H17a1,1,0,0,1,0-2h6a1,1,0,0,1,0,2Z"/> </g> </g>
</svg>