<!DOCTYPE svg PUBLIC "-//W3C//DTD SVG 1.1//EN" "http://www.w3.org/Graphics/SVG/1.1/DTD/svg11.dtd">
<!-- Uploaded to: SVG Repo, www.svgrepo.com, Transformed by: SVG Repo Mixer Tools -->
<svg version="1.1" id="Layer_1" xmlns="http://www.w3.org/2000/svg" xmlns:xlink="http://www.w3.org/1999/xlink" viewBox="-101.78 -101.78 494.37 494.37" xml:space="preserve" width="256px" height="256px" fill="#000000">
<g id="SVGRepo_bgCarrier" stroke-width="0">
<rect x="-101.78" y="-101.78" width="494.37" height="494.37" rx="247.185" fill="#ffda75" strokewidth="0"/>
</g>
<g id="SVGRepo_tracerCarrier" stroke-linecap="round" stroke-linejoin="round"/>
<g id="SVGRepo_iconCarrier"> <g> <g> <path style="fill:#9ca1ab;" d="M243.844,253.313h-93.75V23.625h93.75V253.313z"/> <path style="fill:#333333;" d="M267.281,262.688V117.572c0-7.861-6.394-14.259-14.259-14.259h-9.178v9.375h9.178 c2.691,0,4.884,2.189,4.884,4.884v145.116h-225V117.572c0-2.695,2.194-4.884,4.884-4.884h9.178v131.25H42.28v9.375h4.688h93.75 h107.813v-9.375H140.719v-131.25h9.375v-9.375h-9.375v-53.04l-93.75,26.039v27H37.79c-7.866,0-14.259,6.398-14.259,14.259v145.116 H0.094v15.52c0,6.952,5.653,12.605,12.605,12.605h265.411c6.956,0,12.609-5.653,12.609-12.605v-15.52L267.281,262.688 L267.281,262.688z M56.344,83.438l75-20.836v181.336h-75C56.344,243.938,56.344,83.438,56.344,83.438z M281.344,278.208 c0,1.781-1.453,3.23-3.23,3.23H12.698c-1.777,0-3.23-1.448-3.23-3.23v-6.145h14.063h243.75h14.063V278.208z"/> <polygon style="fill:#333333;" points="168.844,17.784 196.969,9.75 225.094,17.784 225.094,23.625 234.469,23.625 234.469,10.716 196.969,0 159.469,10.716 159.469,23.625 168.844,23.625 "/> <rect x="173.531" y="42.375" style="fill:#333333;" width="9.375" height="9.375"/> <rect x="192.281" y="42.375" style="fill:#333333;" width="9.375" height="9.375"/> <rect x="211.031" y="42.375" style="fill:#333333;" width="9.375" height="9.375"/> <rect x="173.531" y="61.125" style="fill:#333333;" width="9.375" height="9.375"/> <rect x="192.281" y="61.125" style="fill:#333333;" width="9.375" height="9.375"/> <rect x="211.031" y="61.125" style="fill:#333333;" width="9.375" height="9.375"/> <rect x="173.531" y="79.875" style="fill:#333333;" width="9.375" height="9.375"/> <rect x="192.281" y="79.875" style="fill:#333333;" width="9.375" height="9.375"/> <rect x="211.031" y="79.875" style="fill:#333333;" width="9.375" height="9.375"/> <rect x="173.531" y="98.625" style="fill:#333333;" width="9.375" height="9.375"/> <rect x="192.281" y="98.625" style="fill:#333333;" width="9.375" height="9.375"/> <rect x="211.031" y="98.625" style="fill:#333333;" width="9.375" height="9.375"/> <rect x="173.531" y="117.375" style="fill:#333333;" width="9.375" height="9.375"/> <rect x="192.281" y="117.375" style="fill:#333333;" width="9.375" height="9.375"/> <rect x="211.031" y="117.375" style="fill:#333333;" width="9.375" height="9.375"/> <rect x="173.531" y="136.125" style="fill:#333333;" width="9.375" height="9.375"/> <rect x="192.281" y="136.125" style="fill:#333333;" width="9.375" height="9.375"/> <rect x="211.031" y="136.125" style="fill:#333333;" width="9.375" height="9.375"/> <rect x="173.531" y="154.875" style="fill:#333333;" width="9.375" height="9.375"/> <rect x="192.281" y="154.875" style="fill:#333333;" width="9.375" height="9.375"/> <rect x="211.031" y="154.875" style="fill:#333333;" width="9.375" height="9.375"/> <rect x="173.531" y="173.625" style="fill:#333333;" width="9.375" height="9.375"/> <rect x="192.281" y="173.625" style="fill:#333333;" width="9.375" height="9.375"/> <rect x="211.031" y="173.625" style="fill:#333333;" width="9.375" height="9.375"/> <rect x="173.531" y="192.375" style="fill:#333333;" width="9.375" height="9.375"/> <rect x="192.281" y="192.375" style="fill:#333333;" width="9.375" height="9.375"/> <rect x="211.031" y="192.375" style="fill:#333333;" width="9.375" height="9.375"/> <rect x="173.531" y="211.125" style="fill:#333333;" width="9.375" height="9.375"/> <rect x="192.281" y="211.125" style="fill:#333333;" width="9.375" height="9.375"/> <rect x="211.031" y="211.125" style="fill:#333333;" width="9.375" height="9.375"/> <rect x="89.156" y="79.875" style="fill:#333333;" width="9.375" height="9.375"/> <rect x="107.906" y="79.875" style="fill:#333333;" width="9.375" height="9.375"/> <rect x="70.406" y="98.625" style="fill:#333333;" width="9.375" height="9.375"/> <rect x="89.156" y="98.625" style="fill:#333333;" width="9.375" height="9.375"/> <rect x="107.906" y="98.625" style="fill:#333333;" width="9.375" height="9.375"/> <rect x="70.406" y="117.375" style="fill:#333333;" width="9.375" height="9.375"/> <rect x="89.156" y="117.375" style="fill:#333333;" width="9.375" height="9.375"/> <rect x="107.906" y="117.375" style="fill:#333333;" width="9.375" height="9.375"/> <rect x="70.406" y="136.125" style="fill:#333333;" width="9.375" height="9.375"/> <rect x="89.156" y="136.125" style="fill:#333333;" width="9.375" height="9.375"/> <rect x="107.906" y="136.125" style="fill:#333333;" width="9.375" height="9.375"/> <rect x="70.406" y="154.875" style="fill:#333333;" width="9.375" height="9.375"/> <rect x="89.156" y="154.875" style="fill:#333333;" width="9.375" height="9.375"/> <rect x="107.906" y="154.875" style="fill:#333333;" width="9.375" height="9.375"/> <rect x="70.406" y="173.625" style="fill:#333333;" width="9.375" height="9.375"/> <rect x="89.156" y="173.625" style="fill:#333333;" width="9.375" height="9.375"/> <rect x="107.906" y="173.625" style="fill:#333333;" width="9.375" height="9.375"/> <rect x="70.406" y="192.375" style="fill:#333333;" width="9.375" height="9.375"/> <rect x="89.156" y="192.375" style="fill:#333333;" width="9.375" height="9.375"/> <rect x="107.906" y="192.375" style="fill:#333333;" width="9.375" height="9.375"/> <rect x="70.406" y="211.125" style="fill:#333333;" width="9.375" height="9.375"/> <rect x="89.156" y="211.125" style="fill:#333333;" width="9.375" height="9.375"/> <rect x="107.906" y="211.125" style="fill:#333333;" width="9.375" height="9.375"/> </g> </g> </g>
</svg>