<!DOCTYPE svg PUBLIC "-//W3C//DTD SVG 1.1//EN" "http://www.w3.org/Graphics/SVG/1.1/DTD/svg11.dtd">
<!-- Uploaded to: SVG Repo, www.svgrepo.com, Transformed by: SVG Repo Mixer Tools -->
<svg width="256px" height="256px" viewBox="-9.6 -9.6 51.20 51.20" xmlns="http://www.w3.org/2000/svg" fill="#000000" stroke="#000000" stroke-width="0.00032">
<g id="SVGRepo_bgCarrier" stroke-width="0" transform="translate(0,0), scale(1)">
<rect x="-9.6" y="-9.6" width="51.20" height="51.20" rx="25.6" fill="#dafbe1" strokewidth="0"/>
</g>
<g id="SVGRepo_tracerCarrier" stroke-linecap="round" stroke-linejoin="round" stroke="#CCCCCC" stroke-width="0.192"/>
<g id="SVGRepo_iconCarrier"> <defs> <style>.cls-1{fill:#000000;}.cls-2{fill:#24ff65;}</style> </defs> <g data-name="31. Book" id="_31._Book"> <path class="cls-1" d="M4,29a1,1,0,0,1-1-1V4A4,4,0,0,1,7,0H26a3,3,0,0,1,3,3V21a1,1,0,0,1-2,0V3a1,1,0,0,0-1-1H7A2,2,0,0,0,5,4V28A1,1,0,0,1,4,29Z"/> <path class="cls-1" d="M28,32H15a1,1,0,0,1,0-2H27V26H7a2,2,0,0,0,0,4h4a1,1,0,0,1,0,2H7a4,4,0,0,1,0-8H28a1,1,0,0,1,1,1v6A1,1,0,0,1,28,32Z"/> <path class="cls-2" d="M24,12H10a1,1,0,0,1-1-1V5a1,1,0,0,1,1-1H24a1,1,0,0,1,1,1v6A1,1,0,0,1,24,12ZM11,10H23V6H11Z"/> <path class="cls-1" d="M24,16H10a1,1,0,0,1,0-2H24a1,1,0,0,1,0,2Z"/> <path class="cls-1" d="M22,20H12a1,1,0,0,1,0-2H22a1,1,0,0,1,0,2Z"/> </g> </g>
</svg>