<!DOCTYPE svg PUBLIC "-//W3C//DTD SVG 1.1//EN" "http://www.w3.org/Graphics/SVG/1.1/DTD/svg11.dtd">
<!-- Uploaded to: SVG Repo, www.svgrepo.com, Transformed by: SVG Repo Mixer Tools -->
<svg width="256px" height="256px" viewBox="-9.6 -9.6 51.20 51.20" xmlns="http://www.w3.org/2000/svg" fill="#000000" stroke="#000000" stroke-width="0.00032">
<g id="SVGRepo_bgCarrier" stroke-width="0">
<rect x="-9.6" y="-9.6" width="51.20" height="51.20" rx="25.6" fill="#dafbe1" strokewidth="0"/>
</g>
<g id="SVGRepo_tracerCarrier" stroke-linecap="round" stroke-linejoin="round"/>
<g id="SVGRepo_iconCarrier"> <defs> <style>.cls-1{fill:#000000;}.cls-2{fill:#24ff65;}</style> </defs> <g data-name="29. Documents" id="_29._Documents"> <path class="cls-1" d="M9,29H3a3,3,0,0,1-3-3V14a1,1,0,0,1,2,0V26a1,1,0,0,0,1,1H9a1,1,0,0,0,1-1V6A1,1,0,0,0,9,5H3A1,1,0,0,0,2,6v4a1,1,0,0,1-2,0V6A3,3,0,0,1,3,3H9a3,3,0,0,1,3,3V26A3,3,0,0,1,9,29Z"/> <path class="cls-1" d="M19,29H13a3,3,0,0,1-3-3V6a3,3,0,0,1,3-3h6a3,3,0,0,1,3,3V26A3,3,0,0,1,19,29ZM13,5a1,1,0,0,0-1,1V26a1,1,0,0,0,1,1h6a1,1,0,0,0,1-1V6a1,1,0,0,0-1-1Z"/> <path class="cls-1" d="M29,29H23a3,3,0,0,1-3-3V6a3,3,0,0,1,3-3h6a3,3,0,0,1,3,3v8a1,1,0,0,1-2,0V6a1,1,0,0,0-1-1H23a1,1,0,0,0-1,1V26a1,1,0,0,0,1,1h6a1,1,0,0,0,1-1V18a1,1,0,0,1,2,0v8A3,3,0,0,1,29,29Z"/> <path class="cls-1" d="M7,9H5A1,1,0,0,1,5,7H7A1,1,0,0,1,7,9Z"/> <path class="cls-1" d="M7,13H5a1,1,0,0,1,0-2H7a1,1,0,0,1,0,2Z"/> <path class="cls-1" d="M7,17H5a1,1,0,0,1,0-2H7a1,1,0,0,1,0,2Z"/> <path class="cls-2" d="M6,25a2,2,0,1,1,2-2A2,2,0,0,1,6,25Zm0-2v0Z"/> <path class="cls-1" d="M17,9H15a1,1,0,0,1,0-2h2a1,1,0,0,1,0,2Z"/> <path class="cls-1" d="M17,13H15a1,1,0,0,1,0-2h2a1,1,0,0,1,0,2Z"/> <path class="cls-1" d="M17,17H15a1,1,0,0,1,0-2h2a1,1,0,0,1,0,2Z"/> <path class="cls-2" d="M16,25a2,2,0,1,1,2-2A2,2,0,0,1,16,25Zm0-2v0Z"/> <path class="cls-1" d="M27,9H25a1,1,0,0,1,0-2h2a1,1,0,0,1,0,2Z"/> <path class="cls-1" d="M27,13H25a1,1,0,0,1,0-2h2a1,1,0,0,1,0,2Z"/> <path class="cls-1" d="M27,17H25a1,1,0,0,1,0-2h2a1,1,0,0,1,0,2Z"/> <path class="cls-2" d="M26,25a2,2,0,1,1,2-2A2,2,0,0,1,26,25Zm0-2v0Z"/> </g> </g>
</svg>