<!DOCTYPE svg PUBLIC "-//W3C//DTD SVG 1.1//EN" "http://www.w3.org/Graphics/SVG/1.1/DTD/svg11.dtd">
<!-- Uploaded to: SVG Repo, www.svgrepo.com, Transformed by: SVG Repo Mixer Tools -->
<svg width="256px" height="256px" viewBox="0 0 10.51 10.51" style="shape-rendering:geometricPrecision; text-rendering:geometricPrecision; image-rendering:optimizeQuality; fill-rule:evenodd; clip-rule:evenodd" version="1.1" xml:space="preserve" xmlns="http://www.w3.org/2000/svg" xmlns:xlink="http://www.w3.org/1999/xlink" xmlns:xodm="http://www.corel.com/coreldraw/odm/2003" fill="#000000">
<g id="SVGRepo_bgCarrier" stroke-width="0" transform="translate(0.2627500000000005,0.2627500000000005), scale(0.95)">
<rect x="0" y="0" width="10.51" height="10.51" rx="5.255" fill="#f9c8c8" strokewidth="0"/>
</g>
<g id="SVGRepo_tracerCarrier" stroke-linecap="round" stroke-linejoin="round"/>
<g id="SVGRepo_iconCarrier"> <defs> <style type="text/css">  .fil0 {fill:none} .fil2 {fill:#000000} .fil3 {fill:#ff5252} .fil1 {fill:#000000;fill-rule:nonzero}  </style> </defs> <g id="Layer_x0020_1"> <rect class="fil0" height="10.51" width="10.51"/> <path class="fil1" d="M2.53 8.05c-0.1,0 -0.17,-0.07 -0.17,-0.17 0,-0.09 0.07,-0.17 0.17,-0.17l5.46 0c0.09,0 0.17,0.08 0.17,0.17 0,0.1 -0.08,0.17 -0.17,0.17l-5.46 0z"/> <path class="fil2" d="M2.82 4.72l1 0c0.16,0 0.29,0.13 0.29,0.29l0 1.57c0,0.16 -0.13,0.28 -0.29,0.28l-1 0c-0.16,0 -0.29,-0.12 -0.29,-0.28l0 -1.57c0,-0.16 0.13,-0.29 0.29,-0.29zm0.95 0.35l-0.9 0 0 1.45 0.9 0 0 -1.45z"/> <path class="fil3" d="M4.75 2.63l1.01 0c0.16,0 0.29,0.13 0.29,0.29l0 3.66c0,0.15 -0.13,0.28 -0.29,0.28l-1.01 0c-0.15,0 -0.28,-0.13 -0.28,-0.28l0 -3.66c0,-0.16 0.13,-0.29 0.28,-0.29zm0.96 0.34l-0.9 0 0 3.55 0.9 0 0 -3.55z"/> <path class="fil2" d="M6.69 3.82l1.01 0c0.16,0 0.29,0.13 0.29,0.29l0 2.47c0,0.16 -0.13,0.28 -0.29,0.28l-1.01 0c-0.16,0 -0.29,-0.12 -0.29,-0.28l0 -2.47c0,-0.16 0.13,-0.29 0.29,-0.29zm0.96 0.34l-0.9 0 0 2.36 0.9 0 0 -2.36z"/> </g> </g>
</svg>