<!DOCTYPE svg PUBLIC "-//W3C//DTD SVG 1.1//EN" "http://www.w3.org/Graphics/SVG/1.1/DTD/svg11.dtd">
<!-- Uploaded to: SVG Repo, www.svgrepo.com, Transformed by: SVG Repo Mixer Tools -->
<svg width="256px" height="256px" viewBox="-2.4 -2.4 28.80 28.80" xmlns="http://www.w3.org/2000/svg" fill="#000000">
<g id="SVGRepo_bgCarrier" stroke-width="0">
<rect x="-2.4" y="-2.4" width="28.80" height="28.80" rx="14.4" fill="#f9c8c8" strokewidth="0"/>
</g>
<g id="SVGRepo_tracerCarrier" stroke-linecap="round" stroke-linejoin="round"/>
<g id="SVGRepo_iconCarrier"> <defs> <style>.cls-1{fill:#ff5252;}.cls-2{fill:#000000;}</style> </defs> <title>Icon_24px_PartnerInterconnect_Color</title> <g data-name="Product Icons"> <rect class="cls-1" x="11.19" y="6.86" width="1.62" height="10.27"/> <rect class="cls-2" x="2" y="11.19" width="2.7" height="1.62"/> <rect class="cls-1" x="4.43" y="8.76" width="4.86" height="6.49" rx="0.24"/> <rect class="cls-2" x="11.19" y="6.86" width="1.62" height="10.27"/> <rect class="cls-2" x="19.3" y="11.19" width="2.7" height="1.62"/> <path class="cls-2" d="M6.59,17.14v1.33a.29.29,0,0,0,.29.29H17.12a.29.29,0,0,0,.29-.29h0V17.14Z"/> <path class="cls-2" d="M17.12,5.24H6.88a.29.29,0,0,0-.29.29h0V6.86H17.41V5.53a.29.29,0,0,0-.29-.29Z"/> <rect class="cls-1" x="14.7" y="8.76" width="4.86" height="6.49" rx="0.24"/> </g> </g>
</svg>