<!DOCTYPE svg PUBLIC "-//W3C//DTD SVG 1.1//EN" "http://www.w3.org/Graphics/SVG/1.1/DTD/svg11.dtd">
<!-- Uploaded to: SVG Repo, www.svgrepo.com, Transformed by: SVG Repo Mixer Tools -->
<svg version="1.1" id="Layer_1" xmlns="http://www.w3.org/2000/svg" xmlns:xlink="http://www.w3.org/1999/xlink" viewBox="-153.6 -153.6 819.20 819.20" xml:space="preserve" width="256px" height="256px" fill="#000000">
<g id="SVGRepo_bgCarrier" stroke-width="0">
<rect x="-153.6" y="-153.6" width="819.20" height="819.20" rx="409.6" fill="#f9c8c8" strokewidth="0"/>
</g>
<g id="SVGRepo_tracerCarrier" stroke-linecap="round" stroke-linejoin="round"/>
<g id="SVGRepo_iconCarrier"> <path style="fill:#000000;" d="M497.849,439.874H14.151C6.337,439.874,0,433.537,0,425.723V86.277 c0-7.814,6.337-14.151,14.151-14.151h483.698c7.814,0,14.151,6.337,14.151,14.151s-6.337,14.151-14.151,14.151H28.302v311.144 h455.395V156.995c0-7.814,6.337-14.151,14.151-14.151c7.814,0,14.151,6.337,14.151,14.151v268.727 C512,433.537,505.663,439.874,497.849,439.874z"/> <circle style="fill:#ff5252;" cx="392.2" cy="189.555" r="45.26"/> <g> <path style="fill:#000000;" d="M392.199,130.143c-17.335,0-32.955,7.465-43.826,19.346c-11.052-12.118-26.849-19.346-43.891-19.346 c-32.759,0-59.41,26.651-59.41,59.41s26.651,59.411,59.41,59.411c7.814,0,14.151-6.337,14.151-14.151 c0-7.814-6.337-14.151-14.151-14.151c-17.153,0-31.107-13.954-31.107-31.109c0-17.153,13.954-31.107,31.107-31.107 c12.532,0,23.787,7.459,28.67,19.004c0.191,0.453,0.405,0.892,0.637,1.313c-0.645,3.502-1,7.105-1,10.79 c0,32.759,26.651,59.411,59.41,59.411s59.411-26.652,59.411-59.411S424.959,130.143,392.199,130.143z M392.199,220.662 c-17.153,0-31.107-13.954-31.107-31.109c0-17.153,13.954-31.107,31.107-31.107c17.154,0,31.109,13.954,31.109,31.107 C423.309,206.706,409.353,220.662,392.199,220.662z"/> <path style="fill:#000000;" d="M166.995,230.581H74.54c-7.814,0-14.151-6.337-14.151-14.151c0-7.814,6.337-14.151,14.151-14.151 h92.455c7.814,0,14.151,6.337,14.151,14.151C181.147,224.244,174.81,230.581,166.995,230.581z"/> <path style="fill:#000000;" d="M166.995,176.826H74.54c-7.814,0-14.151-6.337-14.151-14.151c0-7.814,6.337-14.151,14.151-14.151 h92.455c7.814,0,14.151,6.337,14.151,14.151C181.147,170.489,174.81,176.826,166.995,176.826z"/> </g> <rect x="76.043" y="306.458" style="fill:#ff5252;" width="85.218" height="66.992"/> <path style="fill:#000000;" d="M161.267,387.605H76.041c-7.814,0-14.151-6.337-14.151-14.151v-66.992 c0-7.814,6.337-14.151,14.151-14.151h85.226c7.814,0,14.151,6.337,14.151,14.151v66.992 C175.418,381.27,169.081,387.605,161.267,387.605z M90.193,359.303h56.923v-38.689H90.193V359.303z"/> <rect x="213.471" y="306.458" style="fill:#ff5252;" width="85.218" height="66.992"/> <path style="fill:#000000;" d="M298.698,387.605h-85.224c-7.814,0-14.151-6.337-14.151-14.151v-66.992 c0-7.814,6.337-14.151,14.151-14.151h85.224c7.814,0,14.151,6.337,14.151,14.151v66.992 C312.849,381.27,306.513,387.605,298.698,387.605z M227.626,359.303h56.922v-38.689h-56.922V359.303z"/> <rect x="350.737" y="306.458" style="fill:#ff5252;" width="85.218" height="66.992"/> <path style="fill:#000000;" d="M435.957,387.605h-85.226c-7.814,0-14.151-6.337-14.151-14.151v-66.992 c0-7.814,6.337-14.151,14.151-14.151h85.226c7.814,0,14.151,6.337,14.151,14.151v66.992 C450.108,381.27,443.773,387.605,435.957,387.605z M364.884,359.303h56.923v-38.689h-56.923V359.303z"/> </g>
</svg>